<?xml version="1.0" encoding="UTF-8"?>
<svg id="Layer_1" xmlns="http://www.w3.org/2000/svg" version="1.1" xmlns:xlink="http://www.w3.org/1999/xlink" viewBox="0 0 546.91 81.79">
  <!-- Generator: Adobe Illustrator 29.8.5, SVG Export Plug-In . SVG Version: 2.1.1 Build 2)  -->
  <defs>
    <style>
      .st0 {
        fill: url(#linear-gradient1);
      }

      .st1 {
        fill: url(#linear-gradient);
      }
    </style>
    <linearGradient id="linear-gradient" x1="445.23" y1="86.88" x2="487.9" y2="26.44" gradientUnits="userSpaceOnUse">
      <stop offset="0" stop-color="#570d9e"/>
      <stop offset="1" stop-color="#ec4860"/>
    </linearGradient>
    <linearGradient id="linear-gradient1" x1="0" y1="30.47" x2="326.31" y2="30.47" xlink:href="#linear-gradient"/>
  </defs>
  <path d="M330.89.48h44.48v11.4h-16.32v49.06h-11.92V11.88h-16.24V.48Z"/>
  <path d="M387.21,17.75v7.43c.98-2.71,2.65-4.76,5.01-6.18,2.36-1.41,5.07-2.12,8.12-2.12v12.44c-3.4-.46-6.45.23-9.16,2.07-2.65,1.79-3.97,4.75-3.97,8.9v20.64h-11.14V17.75h11.14Z"/>
  <path d="M437.99,21.64v-5.1h11.14v43.19h-11.14v-5.1c-3.34,4.2-8.03,6.3-14.08,6.3s-10.71-2.19-14.86-6.56c-4.09-4.43-6.13-9.85-6.13-16.24s2.04-11.72,6.13-16.15c4.15-4.43,9.1-6.65,14.86-6.65,6.05,0,10.74,2.1,14.08,6.31ZM417.44,46.95c2.25,2.25,5.1,3.37,8.55,3.37s6.31-1.12,8.55-3.37c2.3-2.3,3.46-5.24,3.46-8.81s-1.15-6.48-3.46-8.72c-2.25-2.3-5.1-3.46-8.55-3.46s-6.3,1.15-8.55,3.46c-2.25,2.25-3.37,5.15-3.37,8.72s1.12,6.51,3.37,8.81Z"/>
  <path class="st1" d="M468.42,62.07l-14.68,17.57c-1.19,1.42-2.89,2.15-4.61,2.15-1.36,0-2.72-.46-3.84-1.4-2.54-2.12-2.88-5.91-.76-8.45l14.49-17.34c.61.77,1.27,1.52,1.98,2.24,2.23,2.23,4.71,3.97,7.42,5.22ZM491.24,57.92c3.48-2.02,6.18-4.75,8.08-8.21l-9.67-5.53c-.86,1.79-2.17,3.18-3.93,4.19-1.76,1.01-3.76,1.51-6,1.51-3.34,0-6.1-1.09-8.29-3.28-2.19-2.3-3.28-5.12-3.28-8.46s1.09-6.29,3.28-8.51c2.19-2.22,4.95-3.33,8.29-3.33,2.19,0,4.16.52,5.92,1.55,1.76,1.04,3.07,2.45,3.93,4.23l9.59-5.61c-1.79-3.4-4.41-6.1-7.86-8.12-3.46-2.02-7.29-3.02-11.49-3.02-6.51,0-11.95,2.19-16.33,6.56-4.32,4.38-6.48,9.79-6.48,16.24s2.16,11.86,6.48,16.24c4.38,4.38,9.82,6.56,16.33,6.56,4.15,0,7.96-1.01,11.44-3.02Z"/>
  <path d="M546.48,42.72h-32.56c1.44,5.41,5.5,8.12,12.18,8.12,4.26,0,7.49-1.44,9.67-4.32l8.98,5.18c-4.26,6.16-10.54,9.24-18.83,9.24-7.14,0-12.87-2.16-17.19-6.48-4.32-4.32-6.48-9.76-6.48-16.33s2.13-11.86,6.39-16.24c4.2-4.38,9.67-6.56,16.41-6.56s11.6,2.19,15.63,6.56c4.15,4.38,6.22,9.79,6.22,16.24,0,1.21-.14,2.74-.43,4.58ZM513.74,34.08h22.03c-.63-2.82-1.92-4.98-3.84-6.48-1.93-1.5-4.22-2.25-6.87-2.25-3,0-5.47.76-7.43,2.29-1.96,1.53-3.25,3.67-3.89,6.43Z"/>
  <path class="st0" d="M105.97,54.38c-4.38,4.38-9.79,6.56-16.24,6.56s-11.86-2.19-16.24-6.56c-4.38-4.38-6.56-9.79-6.56-16.24s2.19-11.78,6.56-16.15c4.43-4.43,9.85-6.65,16.24-6.65s11.8,2.22,16.24,6.65c4.43,4.44,6.65,9.82,6.65,16.15s-2.22,11.8-6.65,16.24ZM81.36,46.69c2.25,2.25,5.04,3.37,8.38,3.37s6.13-1.12,8.38-3.37c2.25-2.25,3.37-5.1,3.37-8.55s-1.12-6.31-3.37-8.55c-2.25-2.25-5.04-3.37-8.38-3.37s-6.13,1.12-8.38,3.37c-2.19,2.3-3.28,5.15-3.28,8.55s1.09,6.25,3.28,8.55ZM144.5,16.54c4.78,0,8.67,1.58,11.66,4.75,3.11,3.23,4.66,7.6,4.66,13.13v26.52h-11.14v-25.13c0-2.82-.76-5.01-2.29-6.56-1.53-1.55-3.61-2.33-6.26-2.33-2.94,0-5.26.91-6.95,2.72-1.7,1.81-2.55,4.48-2.55,7.99v23.32h-11.14V17.75h11.14v4.84c2.65-4.03,6.94-6.05,12.87-6.05ZM195.02,17.4v10.71h-9.76v17.97c0,1.5.37,2.59,1.12,3.28.75.69,1.84,1.08,3.28,1.17,1.44.09,3.22.07,5.36-.04v10.11c-7.54.86-12.91.16-16.11-2.12s-4.79-6.41-4.79-12.39v-17.97h-7.51v-10.71h7.51v-8.72l11.14-3.37v12.09h9.76ZM243.57,42.72h-32.56c1.44,5.41,5.5,8.12,12.18,8.12,4.26,0,7.48-1.44,9.67-4.32l8.98,5.18c-4.26,6.16-10.54,9.24-18.83,9.24-7.14,0-12.87-2.16-17.19-6.48-4.32-4.32-6.48-9.76-6.48-16.33s2.13-11.86,6.39-16.24c4.2-4.38,9.67-6.56,16.41-6.56s11.6,2.19,15.63,6.56c4.15,4.38,6.22,9.79,6.22,16.24,0,1.21-.14,2.74-.43,4.58ZM210.83,34.08h22.03c-.63-2.82-1.92-4.98-3.84-6.48-1.93-1.5-4.22-2.25-6.87-2.25-2.99,0-5.47.76-7.43,2.29-1.96,1.53-3.25,3.67-3.89,6.43ZM275.78,16.54c4.78,0,8.67,1.58,11.66,4.75,3.11,3.23,4.66,7.6,4.66,13.13v26.52h-11.14v-25.13c0-2.82-.76-5.01-2.29-6.56-1.53-1.55-3.61-2.33-6.26-2.33-2.94,0-5.26.91-6.95,2.72-1.7,1.81-2.55,4.48-2.55,7.99v23.32h-11.14V17.75h11.14v4.84c2.65-4.03,6.94-6.05,12.87-6.05ZM326.31,17.4v10.71h-9.76v17.97c0,1.5.37,2.59,1.12,3.28.75.69,1.84,1.08,3.28,1.17,1.44.09,3.22.07,5.35-.04v10.11c-7.54.86-12.91.16-16.11-2.12s-4.79-6.41-4.79-12.39v-17.97h-7.51v-10.71h7.51v-8.72l11.14-3.37v12.09h9.76ZM48.24,40.99c-3.61,6.07-10.21,10.15-17.77,10.15-7.14,0-13.43-3.65-17.14-9.17h11.46c.57,0,1.11.27,1.44.73.64.89,1.69,1.46,2.87,1.46,2.21,0,3.94-2.02,3.46-4.31-.29-1.39-1.45-2.5-2.86-2.73-1.43-.24-2.73.38-3.48,1.43-.33.46-.87.72-1.43.72h-14.56c-1.13,0-2.04-.91-2.04-2.04h0c0-1.13.91-2.04,2.04-2.04h5.04c.57,0,1.11.27,1.44.73.64.89,1.69,1.46,2.87,1.46,2.21,0,3.94-2.02,3.46-4.31-.29-1.39-1.45-2.5-2.86-2.73-1.43-.24-2.73.38-3.48,1.43-.33.46-.87.72-1.43.72H6.03c-1.13,0-2.04-.91-2.04-2.04s.91-2.04,2.04-2.04h3.88s20.37,0,20.37,0c.57,0,1.11.27,1.44.73.64.89,1.69,1.46,2.87,1.46,2.21,0,3.94-2.02,3.46-4.31-.29-1.39-1.45-2.5-2.86-2.73-1.43-.24-2.73.38-3.48,1.43-.33.46-.87.72-1.43.72H9.33c-1.13,0-2.04-.91-2.04-2.04s.91-2.04,2.04-2.04h10.94c.57,0,1.11.27,1.44.73.64.89,1.69,1.46,2.87,1.46,2.21,0,3.94-2.02,3.46-4.31-.29-1.39-1.45-2.5-2.86-2.73-1.43-.24-2.73.38-3.48,1.43-.33.46-.87.72-1.43.72h-6.94c3.71-5.52,10-9.17,17.14-9.17s14.02,4,17.65,9.96h10.88C54.66,8.21,43.53,0,30.47,0,13.64,0,0,13.64,0,30.47s13.64,30.47,30.47,30.47c13.13,0,24.32-8.3,28.6-19.95h-10.83Z"/>
</svg>